<svg width="256" height="256" viewBox="0 0 256 256" fill="none" xmlns="http://www.w3.org/2000/svg">
<path d="M135.752 131.109C134.953 129.065 132.556 129.065 130.958 130.7L94.204 176.091C82.6184 190.404 80.2214 210.441 88.2114 227.207L96.2015 243.973C97.0005 246.017 103.792 253.787 112.981 239.066L155.328 175.682C155.727 174.864 156.127 173.638 155.727 172.82L145.34 151.556L135.752 131.109Z" fill="#340303"/>
<path d="M155.327 171.181C156.525 173.635 154.927 176.906 152.131 176.906L73.8285 179.769C49.0594 180.587 26.2878 166.683 15.5012 143.783L4.71468 120.883C3.51617 118.021 1.11911 104.118 23.8907 106.571L125.364 112.296C126.962 112.296 128.161 113.114 128.56 114.341L142.143 142.965L155.327 171.181Z" fill="#FF5500"/>
<path d="M140.145 127.428C139.346 125.383 140.544 123.339 142.542 123.339L200.07 121.294C218.447 120.476 235.226 131.108 243.216 147.874L251.206 164.64C252.005 166.685 254.003 176.908 237.224 174.863L162.517 170.365C161.318 170.365 160.519 169.547 160.12 168.729L150.132 147.465L140.145 127.428Z" fill="#340303"/>
<path d="M158.923 167.501C160.121 169.955 163.717 170.363 165.315 168.319L215.252 106.571C231.233 86.9426 234.029 59.9535 223.242 37.0537L212.056 14.1538C210.858 11.2913 201.669 1.06818 189.684 21.1055L132.156 106.98C131.357 108.207 131.357 109.842 131.757 111.069L145.739 139.694L158.923 167.501Z" fill="#FF5500"/>
</svg>
